<svg width="24" height="24" viewBox="0 0 24 24" fill="none" xmlns="http://www.w3.org/2000/svg">
<g clip-path="url(#clip0_1_21)">
<path fill-rule="evenodd" clip-rule="evenodd" d="M13.0125 6.2595C12.9204 6.06929 12.7765 5.90888 12.5975 5.79665C12.4184 5.68441 12.2113 5.62488 12 5.62488C11.7887 5.62488 11.5816 5.68441 11.4025 5.79665C11.2235 5.90888 11.0796 6.06929 10.9875 6.2595L9.2775 9.798L5.4585 10.368C5.25239 10.3989 5.05892 10.4865 4.89968 10.621C4.74044 10.7555 4.62169 10.9315 4.55667 11.1296C4.49164 11.3276 4.48291 11.5398 4.53144 11.7425C4.57997 11.9452 4.68385 12.1304 4.8315 12.2775L7.6065 15.0375L6.951 18.9375C6.9159 19.145 6.93973 19.3583 7.01978 19.5529C7.09982 19.7476 7.23288 19.9159 7.40383 20.0387C7.57477 20.1616 7.77674 20.234 7.98678 20.2477C8.19682 20.2614 8.40651 20.216 8.592 20.1165L12 18.285L15.408 20.115C15.5934 20.2144 15.8029 20.2598 16.0128 20.2461C16.2226 20.2324 16.4245 20.1601 16.5953 20.0375C16.7662 19.9149 16.8993 19.7468 16.9795 19.5524C17.0597 19.3579 17.0838 19.1449 17.049 18.9375L16.3935 15.0345L19.1685 12.276C19.3161 12.1289 19.42 11.9437 19.4686 11.741C19.5171 11.5383 19.5084 11.3261 19.4433 11.1281C19.3783 10.93 19.2596 10.754 19.1003 10.6195C18.9411 10.485 18.7476 10.3974 18.5415 10.3665L14.724 9.7965L13.014 6.258L13.0125 6.2595ZM11.043 11.313L12 9.333L12.957 11.313C13.0369 11.4779 13.1558 11.6209 13.3035 11.7294C13.4512 11.8379 13.6232 11.9086 13.8045 11.9355L15.993 12.2625L14.394 13.851C14.2667 13.9779 14.1717 14.1335 14.1169 14.3047C14.0621 14.4759 14.0491 14.6577 14.079 14.835L14.4495 17.049L12.5325 16.02C12.3688 15.932 12.1858 15.886 12 15.886C11.8142 15.886 11.6312 15.932 11.4675 16.02L9.5505 17.049L9.9225 14.835C9.95224 14.6576 9.93902 14.4757 9.88395 14.3045C9.82888 14.1333 9.73357 13.9778 9.606 13.851L8.007 12.261L10.197 11.9355C10.378 11.9084 10.5497 11.8375 10.6971 11.729C10.8445 11.6206 10.9633 11.4778 11.043 11.313Z" fill="black"/>
<path fill-rule="evenodd" clip-rule="evenodd" d="M18 1.125C18 0.826631 17.8815 0.540483 17.6705 0.329505C17.4595 0.118526 17.1734 0 16.875 0C16.5766 0 16.2905 0.118526 16.0795 0.329505C15.8685 0.540483 15.75 0.826631 15.75 1.125V1.5H8.25V1.125C8.25 0.826631 8.13147 0.540483 7.9205 0.329505C7.70952 0.118526 7.42337 0 7.125 0C6.82663 0 6.54048 0.118526 6.3295 0.329505C6.11853 0.540483 6 0.826631 6 1.125V1.5H3.375C2.47989 1.5 1.62145 1.85558 0.988515 2.48851C0.355579 3.12145 0 3.97989 0 4.875L0 20.625C0 21.5201 0.355579 22.3785 0.988515 23.0115C1.62145 23.6444 2.47989 24 3.375 24H20.625C21.5201 24 22.3785 23.6444 23.0115 23.0115C23.6444 22.3785 24 21.5201 24 20.625V4.875C24 3.97989 23.6444 3.12145 23.0115 2.48851C22.3785 1.85558 21.5201 1.5 20.625 1.5H18V1.125ZM6 4.875V3.75H3.375C3.07663 3.75 2.79048 3.86853 2.5795 4.0795C2.36853 4.29048 2.25 4.57663 2.25 4.875V20.625C2.25 21.246 2.754 21.75 3.375 21.75H20.625C20.9234 21.75 21.2095 21.6315 21.4205 21.4205C21.6315 21.2095 21.75 20.9234 21.75 20.625V4.875C21.75 4.57663 21.6315 4.29048 21.4205 4.0795C21.2095 3.86853 20.9234 3.75 20.625 3.75H18V4.875C18 5.17337 17.8815 5.45952 17.6705 5.6705C17.4595 5.88147 17.1734 6 16.875 6C16.5766 6 16.2905 5.88147 16.0795 5.6705C15.8685 5.45952 15.75 5.17337 15.75 4.875V3.75H8.25V4.875C8.25 5.17337 8.13147 5.45952 7.9205 5.6705C7.70952 5.88147 7.42337 6 7.125 6C6.82663 6 6.54048 5.88147 6.3295 5.6705C6.11853 5.45952 6 5.17337 6 4.875Z" fill="black"/>
</g>
<defs>
<clipPath id="clip0_1_21">
<rect width="24" height="24" fill="white"/>
</clipPath>
</defs>
</svg>
